<svg xmlns="http://www.w3.org/2000/svg" width="1100" height="1100" fill="none" viewBox="0 0 1100 1100"><circle cx="550" cy="550" r="530" stroke="#023a6a" stroke-width="40"/><path fill="#023a6a" d="M507.752 482C495.089 558.649 430.4 617 352.5 617s-142.589-58.351-155.252-135h40.704c12.063 55.114 59.607 95 114.548 95s102.485-39.886 114.548-95z"/><ellipse cx="425.5" cy="231.5" fill="#023a6a" rx="30.5" ry="31.5"/><ellipse cx="488.5" cy="479" fill="#023a6a" rx="19.5" ry="20"/><path fill="#023a6a" d="M446.782 223.086C492.991 224.431 533 242.844 533 320c0 68.189-23.331 171.865-60.093 201.701l-2.375-27.145c7.595-10.991 14.868-26.723 21.223-45.756C505.242 408.403 513 358.043 513 320c0-36.722-9.828-54.246-20.632-63.314-10.197-8.559-24.84-12.693-43.83-13.524z"/><path fill="#023a6a" d="m470.112 473.056 5 5v8l-8.067-4.034z"/><ellipse cx="30.5" cy="31.5" fill="#023a6a" rx="30.5" ry="31.5" transform="matrix(-1 0 0 1 310 200)"/><ellipse cx="19.5" cy="20" fill="#023a6a" rx="19.5" ry="20" transform="matrix(-1 0 0 1 236 459)"/><path fill="#023a6a" d="M258.218 223.086C212.009 224.431 172 242.844 172 320c0 68.189 23.331 171.865 60.093 201.701l2.375-27.145c-7.595-10.991-14.868-26.723-21.223-45.756C199.758 408.403 192 358.043 192 320c0-36.722 9.828-54.246 20.632-63.314 10.197-8.559 24.84-12.693 43.83-13.524z"/><path fill="#023a6a" d="m234.888 473.056-5 5v8l8.067-4.034zM370.131 602a649 649 0 0 0-.131 13c0 105.636 26.026 177.513 67.725 222.819C479.069 882.74 539.947 906 619.5 906c67.378 0 124.979-28.532 168.64-79h38.306C776.433 895.286 705.022 936 619.5 936 448.568 936 340 835.362 340 615q0-6.488.125-13z"/><circle cx="806.5" cy="769.5" r="53.5" stroke="#023a6a" stroke-width="30"/><path stroke="#023a6a" stroke-linecap="round" stroke-linejoin="round" stroke-width="30" d="m489.9 583.101 54.598.001 31.5-83.602 64 254.5L718 304.5l62 328 39.5-111 31.5 57.804h201.9"/></svg>